<svg height="200px" width="200px" version="1.1" id="Layer_1" xmlns="http://www.w3.org/2000/svg"
     xmlns:xlink="http://www.w3.org/1999/xlink" viewBox="0 0 512 512" xml:space="preserve" fill="#000000"><g id="SVGRepo_bgCarrier" stroke-width="0"></g>
    <g id="SVGRepo_tracerCarrier" stroke-linecap="round" stroke-linejoin="round"></g>
    <g id="SVGRepo_iconCarrier"> <g transform="translate(1 1)"> <path style="fill:#FFE100;"
                                                                      d="M502.467,255c0,136.533-110.933,247.467-247.467,247.467S7.533,391.533,7.533,255 S118.467,7.533,255,7.533S502.467,118.467,502.467,255"></path>
        <path style="fill:#FFA800;"
              d="M255,7.533c-4.267,0-8.533,0-12.8,0C372.76,14.36,476.867,122.733,476.867,255 S372.76,495.64,242.2,502.467c4.267,0,8.533,0,12.8,0c136.533,0,247.467-110.933,247.467-247.467S391.533,7.533,255,7.533"></path>
        <path style="fill:#FFFFFF;"
              d="M255,7.533c4.267,0,8.533,0,12.8,0C137.24,14.36,33.133,122.733,33.133,255 S137.24,495.64,267.8,502.467c-4.267,0-8.533,0-12.8,0C118.467,502.467,7.533,391.533,7.533,255S118.467,7.533,255,7.533"></path>
        <g> <path style="fill:#63D3FD;"
                  d="M229.4,186.733c0,37.547-30.72,68.267-68.267,68.267s-68.267-30.72-68.267-68.267 s30.72-68.267,68.267-68.267S229.4,149.187,229.4,186.733"></path>
            <path style="fill:#63D3FD;"
                  d="M417.133,186.733c0,37.547-30.72,68.267-68.267,68.267S280.6,224.28,280.6,186.733 s30.72-68.267,68.267-68.267S417.133,149.187,417.133,186.733"></path>
            <path style="fill:#63D3FD;"
                  d="M355.693,348.867c-2.56,0-5.12-1.707-6.827-4.267c-20.48-34.987-50.347-46.08-50.347-46.08 c-20.48-5.973-35.84,7.68-41.813,14.507c-1.707,1.707-3.413,1.707-5.12,0c-5.973-6.827-21.333-20.48-41.813-14.507 c0,0-29.013,11.093-49.493,46.08c-1.707,2.56-4.267,4.267-6.827,4.267h-17.92c-6.827,0-11.093,8.533-5.973,13.653l11.093,11.093 c11.947,11.947,28.16,18.773,45.227,18.773c18.773,0,36.693-8.533,49.493-23.04c5.973-7.68,13.653-13.653,19.627-12.8 c5.973-0.853,13.653,5.12,19.627,12.8c11.947,14.507,29.867,23.04,49.493,23.04h0.853c17.067,0,33.28-6.827,45.227-18.773 l11.093-11.093c4.267-5.12,0.853-13.653-6.827-13.653H355.693z"></path> </g>
        <path style="fill:#FFE100;"
              d="M186.733,186.733c0,14.507-11.093,25.6-25.6,25.6s-25.6-11.093-25.6-25.6s11.093-25.6,25.6-25.6 S186.733,172.227,186.733,186.733"></path>
        <path d="M161.133,263.533c-42.667,0-76.8-34.133-76.8-76.8s34.133-76.8,76.8-76.8s76.8,34.133,76.8,76.8 S203.8,263.533,161.133,263.533z M161.133,127c-33.28,0-59.733,26.453-59.733,59.733s26.453,59.733,59.733,59.733 s59.733-26.453,59.733-59.733S194.413,127,161.133,127z"></path>
        <path d="M348.867,263.533c-42.667,0-76.8-34.133-76.8-76.8s34.133-76.8,76.8-76.8s76.8,34.133,76.8,76.8 S391.533,263.533,348.867,263.533z M348.867,127c-33.28,0-59.733,26.453-59.733,59.733s26.453,59.733,59.733,59.733 s59.733-26.453,59.733-59.733S382.147,127,348.867,127z"></path>
        <path d="M280.6,195.267h-51.2c-5.12,0-8.533-3.413-8.533-8.533c0-5.12,3.413-8.533,8.533-8.533h51.2 c5.12,0,8.533,3.413,8.533,8.533C289.133,191.853,285.72,195.267,280.6,195.267z"></path>
        <path d="M434.2,195.267h-17.067c-5.12,0-8.533-3.413-8.533-8.533c0-5.12,3.413-8.533,8.533-8.533H434.2 c5.12,0,8.533,3.413,8.533,8.533C442.733,191.853,439.32,195.267,434.2,195.267z"></path>
        <path d="M92.867,195.267H75.8c-5.12,0-8.533-3.413-8.533-8.533c0-5.12,3.413-8.533,8.533-8.533h17.067 c5.12,0,8.533,3.413,8.533,8.533C101.4,191.853,97.987,195.267,92.867,195.267z"></path>
        <path d="M255,511C114.2,511-1,395.8-1,255S114.2-1,255-1s256,115.2,256,256S395.8,511,255,511z M255,16.067 C123.587,16.067,16.067,123.587,16.067,255S123.587,493.933,255,493.933S493.933,386.413,493.933,255S386.413,16.067,255,16.067z"></path>
        <path style="fill:#020202;"
              d="M324.12,400.92h-0.853c-21.333,0-41.813-9.387-55.467-25.6c-6.827-7.68-11.093-9.387-11.947-9.387 c-0.853,0-1.707,0-1.707,0l0,0c-1.707,0-5.973,1.707-11.947,9.387c-13.653,16.213-34.133,25.6-55.467,25.6 c-19.627,0-37.547-7.68-51.2-21.333l-11.093-11.093c-5.12-5.12-5.973-11.947-3.413-17.92c2.56-5.973,8.533-10.24,15.36-10.24 h18.773c21.333-36.693,52.053-48.64,52.907-49.493c21.333-6.827,38.4,4.267,46.933,12.8c6.827-6.827,18.773-15.36,34.133-15.36 c4.267,0,8.533,0.853,11.947,1.707c1.707,0.853,33.28,12.8,55.467,49.493h17.92c6.827,0,12.8,4.267,15.36,10.24 s0.853,13.653-3.413,17.92l-11.093,11.093C361.667,393.24,343.747,400.92,324.12,400.92z M255.853,348.013 c7.68,0,16.213,5.12,24.747,15.36c11.093,12.8,26.453,19.627,42.667,19.627h0.853c15.36,0,29.013-5.973,39.253-16.213l10.24-10.24 h-17.92c-5.973,0-11.093-3.413-13.653-8.533c-18.773-31.573-46.08-41.813-46.08-41.813c-2.56,0-4.267,0-6.827,0 c-11.947,0-22.187,9.387-25.6,12.8c-4.267,5.12-13.653,5.12-17.92,0c-3.413-4.267-12.8-12.8-25.6-12.8c-2.56,0-5.12,0-7.68,0.853 l0,0c0,0-25.6,10.24-44.373,41.813c-2.56,5.12-8.533,8.533-13.653,8.533h-17.92l10.24,10.24 c10.24,10.24,24.747,16.213,39.253,16.213c16.213,0,31.573-6.827,42.667-19.627c9.387-11.093,17.92-16.213,26.453-15.36 C255,348.013,255,348.013,255.853,348.013z"></path>
        <path d="M374.467,220.867c-0.853,0-2.56,0-3.413-0.853l-59.733-25.6c-3.413-0.853-5.12-4.267-5.12-7.68s1.707-6.827,5.12-7.68 l59.733-25.6c4.267-1.707,9.387,0,11.093,4.267c1.707,4.267,0,9.387-4.267,11.093l-41.813,17.92l41.813,17.92 c4.267,1.707,5.973,6.827,4.267,11.093C380.44,219.16,377.88,220.867,374.467,220.867z"></path>
        <path d="M161.133,220.867c-18.773,0-34.133-15.36-34.133-34.133s15.36-34.133,34.133-34.133s34.133,15.36,34.133,34.133 S179.907,220.867,161.133,220.867z M161.133,169.667c-9.387,0-17.067,7.68-17.067,17.067c0,9.387,7.68,17.067,17.067,17.067 s17.067-7.68,17.067-17.067S170.52,169.667,161.133,169.667z"></path> </g> </g></svg>